<svg xmlns="http://www.w3.org/2000/svg" width="400" height="500" viewBox="0 0 400 500">
  <defs>
    <linearGradient id="g" x1="0" x2="0" y1="0" y2="1">
      <stop offset="0" stop-color="#ffffff" stop-opacity="0.55"/>
      <stop offset="1" stop-color="#ffffff" stop-opacity="0.15"/>
    </linearGradient>
  </defs>
  <path d="M80 60
           C85 75, 85 90, 86 110
           L98 430
           C100 460, 125 480, 155 480
           L245 480
           C275 480, 300 460, 302 430
           L314 110
           C315 90, 315 75, 320 60"
        fill="url(#g)" stroke="#111" stroke-width="10" stroke-linecap="round"/>
  <path d="M90 60 H310" stroke="#111" stroke-width="14" stroke-linecap="round"/>
  <path d="M102 120 L112 420 C114 445, 132 462, 156 462 H244 C268 462, 286 445, 288 420 L298 120"
        fill="none" stroke="#ffffff" stroke-opacity="0.55" stroke-width="6" stroke-linecap="round"/>
</svg>
