<svg xmlns="http://www.w3.org/2000/svg" width="420" height="220" viewBox="0 0 420 220">
  <defs>
    <linearGradient id="rg" x1="0" x2="1" y1="0" y2="1">
      <stop offset="0" stop-color="#9a9a9a"/>
      <stop offset="1" stop-color="#5f5f5f"/>
    </linearGradient>
  </defs>
  <path d="M30 150
           C45 110, 90 85, 130 70
           C165 58, 205 35, 250 42
           C295 48, 330 70, 360 95
           C390 120, 402 145, 395 165
           C385 195, 350 205, 310 205
           L110 205
           C70 205, 40 190, 30 150 Z"
        fill="url(#rg)" stroke="#2e2e2e" stroke-width="8" stroke-linejoin="round"/>
  <path d="M110 120 C140 95, 200 85, 250 90" stroke="#ffffff" stroke-opacity="0.18" stroke-width="10" stroke-linecap="round"/>
  <path d="M90 170 C140 160, 230 150, 320 155" stroke="#000000" stroke-opacity="0.12" stroke-width="10" stroke-linecap="round"/>
</svg>
